{
  "accessors": [
    {
      "bufferView": 0,
      "byteOffset": 0,
      "componentType": 5123,
      "count": 204,
      "max": [
        76.0
      ],
      "min": [
        0.0
      ],
      "name": "buffer-0-group-0-mesh-0-indices",
      "type": "SCALAR"
    },
    {
      "bufferView": 1,
      "byteOffset": 0,
      "componentType": 5126,
      "count": 77,
      "max": [
        25.998859405517578,
        25.539997100830078,
        38.527130126953125
      ],
      "min": [
        -60.77281951904297,
        -5.704493999481201,
        -0.09554799646139145
      ],
      "name": "buffer-0-group-0-mesh-0-position",
      "type": "VEC3"
    },
    {
      "bufferView": 1,
      "byteOffset": 924,
      "componentType": 5126,
      "count": 77,
      "max": [
        0.8649196028709412,
        0.9535146951675415,
        0.9999996423721313
      ],
      "min": [
        -0.9999966621398926,
        -0.9999935626983643,
        -0.9405555129051208
      ],
      "name": "buffer-0-group-0-mesh-0-normal",
      "type": "VEC3"
    },
    {
      "bufferView": 0,
      "byteOffset": 408,
      "componentType": 5123,
      "count": 2838,
      "max": [
        648.0
      ],
      "min": [
        0.0
      ],
      "name": "buffer-0-group-1-mesh-0-indices",
      "type": "SCALAR"
    },
    {
      "bufferView": 1,
      "byteOffset": 1848,
      "componentType": 5126,
      "count": 649,
      "max": [
        26.415843963623047,
        26.316680908203125,
        38.527130126953125
      ],
      "min": [
        -60.77281951904297,
        -12.755996704101562,
        -0.09554799646139145
      ],
      "name": "buffer-0-group-1-mesh-0-position",
      "type": "VEC3"
    },
    {
      "bufferView": 1,
      "byteOffset": 9636,
      "componentType": 5126,
      "count": 649,
      "max": [
        0.9999989867210388,
        0.9999973177909851,
        0.9999998807907104
      ],
      "min": [
        -0.9999982714653015,
        -0.9999955296516418,
        -0.999999463558197
      ],
      "name": "buffer-0-group-1-mesh-0-normal",
      "type": "VEC3"
    },
    {
      "bufferView": 0,
      "byteOffset": 6084,
      "componentType": 5123,
      "count": 12,
      "max": [
        7.0
      ],
      "min": [
        0.0
      ],
      "name": "buffer-0-group-2-mesh-0-indices",
      "type": "SCALAR"
    },
    {
      "bufferView": 1,
      "byteOffset": 17424,
      "componentType": 5126,
      "count": 8,
      "max": [
        17.288724899291992,
        16.88084602355957,
        36.23324203491211
      ],
      "min": [
        -59.366539001464844,
        13.370586395263672,
        1.565924048423767
      ],
      "name": "buffer-0-group-2-mesh-0-position",
      "type": "VEC3"
    },
    {
      "bufferView": 1,
      "byteOffset": 17520,
      "componentType": 5126,
      "count": 8,
      "max": [
        0.7127120494842529,
        -0.042960964143276215,
        0.9045342803001404
      ],
      "min": [
        -0.762492835521698,
        -0.5574730634689331,
        -0.7001400589942932
      ],
      "name": "buffer-0-group-2-mesh-0-normal",
      "type": "VEC3"
    },
    {
      "bufferView": 0,
      "byteOffset": 6108,
      "componentType": 5123,
      "count": 102,
      "max": [
        35.0
      ],
      "min": [
        0.0
      ],
      "name": "buffer-0-group-3-mesh-0-indices",
      "type": "SCALAR"
    },
    {
      "bufferView": 1,
      "byteOffset": 17616,
      "componentType": 5126,
      "count": 36,
      "max": [
        26.415843963623047,
        15.069669723510742,
        3.27496600151062
      ],
      "min": [
        -59.116485595703125,
        -12.755996704101562,
        -0.11274900287389755
      ],
      "name": "buffer-0-group-3-mesh-0-position",
      "type": "VEC3"
    },
    {
      "bufferView": 1,
      "byteOffset": 18048,
      "componentType": 5126,
      "count": 36,
      "max": [
        0.9999989867210388,
        0.9999973177909851,
        0.9999996423721313
      ],
      "min": [
        -0.9999982714653015,
        -0.6882472038269043,
        -0.9999989867210388
      ],
      "name": "buffer-0-group-3-mesh-0-normal",
      "type": "VEC3"
    }
  ],
  "asset": {
    "generator": "Obj2GltfConverter",
    "version": "2.0"
  },
  "bufferViews": [
    {
      "buffer": 0,
      "byteLength": 6312,
      "byteOffset": 0,
      "name": "buffer-0-bufferview-ushort",
      "target": 34963
    },
    {
      "buffer": 0,
      "byteLength": 18480,
      "byteOffset": 6312,
      "byteStride": 12,
      "name": "buffer-0-bufferview-vec3",
      "target": 34962
    }
  ],
  "buffers": [
    {
      "byteLength": 24792,
      "name": "buffer-0",
      "uri": "Laptop and monitor.bin"
    }
  ],
  "materials": [
    {
      "alphaMode": "OPAQUE",
      "doubleSided": true,
      "name": "ligrey",
      "pbrMetallicRoughness": {
        "baseColorFactor": [
          0.776471,
          0.776471,
          0.776471,
          1.0
        ],
        "metallicFactor": 0.0,
        "roughnessFactor": 0.9699476628648295
      }
    },
    {
      "alphaMode": "OPAQUE",
      "doubleSided": true,
      "name": "Gray",
      "pbrMetallicRoughness": {
        "baseColorFactor": [
          0.501961,
          0.501961,
          0.501961,
          1.0
        ],
        "metallicFactor": 0.0,
        "roughnessFactor": 0.9699476628648295
      }
    },
    {
      "alphaMode": "OPAQUE",
      "doubleSided": true,
      "name": "Black",
      "pbrMetallicRoughness": {
        "baseColorFactor": [
          0.0,
          0.0,
          0.0,
          1.0
        ],
        "metallicFactor": 0.0,
        "roughnessFactor": 0.9699476628648295
      }
    },
    {
      "alphaMode": "OPAQUE",
      "doubleSided": true,
      "name": "darker_grey",
      "pbrMetallicRoughness": {
        "baseColorFactor": [
          0.317647,
          0.317647,
          0.317647,
          1.0
        ],
        "metallicFactor": 0.0,
        "roughnessFactor": 0.9699476628648295
      }
    }
  ],
  "meshes": [
    {
      "name": "buffer-0-mesh-0",
      "primitives": [
        {
          "attributes": {
            "POSITION": 1,
            "NORMAL": 2
          },
          "indices": 0,
          "material": 0,
          "mode": 4
        },
        {
          "attributes": {
            "POSITION": 4,
            "NORMAL": 5
          },
          "indices": 3,
          "material": 1,
          "mode": 4
        },
        {
          "attributes": {
            "POSITION": 7,
            "NORMAL": 8
          },
          "indices": 6,
          "material": 2,
          "mode": 4
        },
        {
          "attributes": {
            "POSITION": 10,
            "NORMAL": 11
          },
          "indices": 9,
          "material": 3,
          "mode": 4
        }
      ]
    }
  ],
  "nodes": [
    {
      "mesh": 0,
      "name": "node-0"
    }
  ],
  "scenes": [
    {
      "name": "scene-0",
      "nodes": [
        0
      ]
    }
  ]
}